<svg width="408" height="318" viewBox="0 0 408 318" fill="none" xmlns="http://www.w3.org/2000/svg">
<path d="M193.809 12.4541C199.791 7.75603 208.209 7.75603 214.191 12.4541L333.014 105.773C345.339 115.453 338.494 135.25 322.822 135.25H85.1777C69.5062 135.25 62.6615 115.453 74.9863 105.773L193.809 12.4541Z" fill="white" stroke="black" stroke-width="7"/>
<mask id="path-2-inside-1_2_154" fill="white">
<path d="M323.524 253.189C323.524 268.653 310.988 281.189 295.524 281.189H113.037C97.5735 281.189 85.0373 268.653 85.0371 253.189V123.272H323.524V253.189Z"/>
</mask>
<path d="M323.524 253.189C323.524 268.653 310.988 281.189 295.524 281.189H113.037C97.5735 281.189 85.0373 268.653 85.0371 253.189V123.272H323.524V253.189Z" fill="white"/>
<path d="M323.524 253.189L330.524 253.19V253.189H323.524ZM113.037 281.189L113.037 288.189H113.037V281.189ZM85.0371 253.189L78.0371 253.189L78.0371 253.19L85.0371 253.189ZM85.0371 123.272V116.272H78.0371V123.272H85.0371ZM323.524 123.272H330.524V116.272H323.524V123.272ZM323.524 253.189L316.524 253.189C316.524 264.787 307.122 274.189 295.524 274.189V281.189V288.189C314.854 288.189 330.524 272.519 330.524 253.19L323.524 253.189ZM295.524 281.189V274.189H113.037V281.189V288.189H295.524V281.189ZM113.037 281.189L113.037 274.189C101.439 274.189 92.0372 264.787 92.0371 253.189L85.0371 253.189L78.0371 253.19C78.0373 272.519 93.7075 288.189 113.037 288.189L113.037 281.189ZM85.0371 253.189H92.0371V123.272H85.0371H78.0371V253.189H85.0371ZM85.0371 123.272V130.272H323.524V123.272V116.272H85.0371V123.272ZM323.524 123.272H316.524V253.189H323.524H330.524V123.272H323.524Z" fill="black" mask="url(#path-2-inside-1_2_154)"/>
<path d="M315.905 109.575C320.626 114.537 323.524 121.25 323.524 128.64C323.524 130.103 323.41 131.539 323.191 132.94H85.3711C85.1523 131.539 85.0371 130.103 85.0371 128.64C85.0372 121.25 87.9356 114.537 92.6562 109.575H315.905Z" fill="white"/>
<path d="M358 318H288.88V137.774H358V318Z" fill="white"/>
</svg>
